<svg width="70" height="58" viewBox="0 0 70 58" fill="none" xmlns="http://www.w3.org/2000/svg">
<path d="M6.1468 47.4648H10.1762L15.7289 57.5875H12.2892L11.3064 55.8185H5.06575L4.13211 57.5875H0.692383L6.1468 47.4648ZM6.19594 53.6072H10.1762L8.1615 49.8235L6.19594 53.6072Z" fill="#373737"/>
<path d="M16.5146 50.8062H22.1656C22.657 50.8062 23.0501 50.8553 23.3941 51.0027C23.6889 51.101 23.9838 51.2975 24.1312 51.4941C24.3277 51.6907 24.426 51.9363 24.5243 52.2312C24.5734 52.526 24.6226 52.8208 24.6226 53.1648V53.7545C24.6226 54.0002 24.5734 54.2459 24.5243 54.5407C24.4752 54.7864 24.3769 55.0321 24.2295 55.2287C24.082 55.4252 23.8855 55.6218 23.6398 55.72C23.3941 55.8675 23.0993 55.9166 22.7062 55.9166H18.5785V57.6365H16.5146V50.8062ZM18.5785 54.1967H21.8217C22.0673 54.1967 22.2148 54.1476 22.3622 54.0002C22.4605 53.8528 22.5096 53.7053 22.5096 53.5088V53.2631C22.5096 53.0174 22.4605 52.87 22.313 52.7226C22.1656 52.5752 21.9691 52.526 21.6251 52.526H18.5785V54.1967Z" fill="#373737"/>
<path d="M25.7529 50.8062H28.947L31.3056 55.1795L33.6643 50.8062H36.8583V57.5873H34.8436V52.7226L32.141 57.5873H30.5685L27.8659 52.7226V57.5873H25.7529V50.8062Z" fill="#373737"/>
<path d="M46.4902 50.8062H54.4016V52.4769H51.5024V57.5873H49.4386V52.4769H46.5394V50.8062H46.4902Z" fill="#373737"/>
<path d="M60.1009 47.4648H64.1303L69.683 57.5875H66.2433L65.2605 55.8185H58.9707L58.0862 57.5875H54.6465L60.1009 47.4648ZM60.1992 53.6072H64.1794L62.1647 49.8235L60.1992 53.6072Z" fill="#373737"/>
<path fill-rule="evenodd" clip-rule="evenodd" d="M45.4593 50.6587H38.8747L37.9902 52.3786H44.624L45.4593 50.6587Z" fill="#E30613"/>
<path fill-rule="evenodd" clip-rule="evenodd" d="M45.4086 53.2632H38.824L37.9395 55.0322L44.5732 54.983L45.4086 53.2632Z" fill="#E30613"/>
<path fill-rule="evenodd" clip-rule="evenodd" d="M45.4086 55.8184H38.824L37.9395 57.5874L44.5732 57.5382L45.4086 55.8184Z" fill="#E30613"/>
<path d="M30.3229 14.4434L21.7236 31.7403H27.9643L29.5859 28.8411H40.1507L41.7723 31.7403H48.013L39.4628 14.4434H30.3229ZM31.6006 24.3203L34.4998 18.3253H35.3351L38.1852 24.3203H31.6006Z" fill="#E30613"/>
<path d="M34.7454 0.881348C25.7038 0.881348 17.8907 6.09007 14.107 13.6575C12.5837 16.7532 11.6992 20.2421 11.6992 23.9275C11.6992 36.6545 22.0184 46.9736 34.7454 46.9736C43.9343 46.9736 51.8457 41.6175 55.5803 33.8536C57.0053 30.8561 57.8407 27.4655 57.8407 23.9275C57.8407 11.2005 47.4723 0.881348 34.7454 0.881348ZM47.7672 8.69443C48.3568 8.05563 49.3888 8.05563 49.9784 8.69443C50.6172 9.2841 50.6172 10.316 49.9784 10.9057C49.3888 11.5445 48.3568 11.5445 47.7672 10.9057C47.1284 10.316 47.1284 9.33324 47.7672 8.69443ZM34.8436 2.15896C35.7281 2.15896 36.4161 2.8469 36.4161 3.7314C36.4161 4.61591 35.7281 5.30385 34.8436 5.30385C33.9591 5.30385 33.2712 4.61591 33.2712 3.7314C33.2712 2.8469 33.9591 2.15896 34.8436 2.15896ZM19.5123 8.25218C20.102 7.61338 21.1339 7.61338 21.7236 8.25218C22.3624 8.84185 22.3624 9.87377 21.7236 10.4634C21.1339 11.1022 20.102 11.1022 19.5123 10.4634C18.9226 9.87377 18.9226 8.89099 19.5123 8.25218ZM14.451 24.812C13.5665 24.812 12.8786 24.1241 12.8786 23.2396C12.8786 22.3551 13.5665 21.6671 14.451 21.6671C15.3355 21.6671 16.0234 22.3551 16.0234 23.2396C16.0234 24.1241 15.3355 24.812 14.451 24.812ZM21.6744 39.5537C21.0848 40.1925 20.0528 40.1925 19.4632 39.5537C18.8244 38.964 18.8244 37.9321 19.4632 37.3424C20.0528 36.7036 21.0848 36.7036 21.6744 37.3424C22.2641 37.9321 22.3132 38.9149 21.6744 39.5537ZM34.8436 45.5978C33.9591 45.5978 33.2712 44.9098 33.2712 44.0253C33.2712 43.1408 33.9591 42.4529 34.8436 42.4529C35.7281 42.4529 36.4161 43.1408 36.4161 44.0253C36.4161 44.9098 35.679 45.5978 34.8436 45.5978ZM50.6664 38.9149C50.0767 39.5537 49.0448 39.5537 48.4551 38.9149C47.8163 38.3252 47.8163 37.2933 48.4551 36.7036C49.0448 36.0648 50.0767 36.0648 50.6664 36.7036C51.256 37.2933 51.256 38.2761 50.6664 38.9149ZM51.256 29.0379C48.406 38.0795 38.7256 43.0917 29.6349 40.2416C20.5442 37.3916 15.4829 27.7603 18.333 18.7188C21.183 9.67721 30.8634 4.66504 39.9541 7.5151C48.9957 10.3652 54.057 19.9964 51.256 29.0379ZM54.9906 24.7629C54.1061 24.7629 53.4182 24.0749 53.4182 23.1904C53.4182 22.3059 54.1061 21.618 54.9906 21.618C55.8751 21.618 56.563 22.3059 56.563 23.1904C56.563 24.0749 55.826 24.7629 54.9906 24.7629Z" fill="#9A9999"/>
<path d="M34.8931 2.20801C34.0086 2.20801 33.2715 2.94509 33.2715 3.82959C33.2715 4.71409 34.0086 5.45118 34.8931 5.45118C35.7776 5.45118 36.5147 4.71409 36.5147 3.82959C36.5147 2.94509 35.7776 2.20801 34.8931 2.20801ZM34.8931 5.30376C34.0577 5.30376 33.4189 4.66495 33.4189 3.82959C33.4189 2.99423 34.0577 2.35542 34.8931 2.35542C35.7284 2.35542 36.3672 2.99423 36.3672 3.82959C36.3672 4.66495 35.6793 5.30376 34.8931 5.30376Z" fill="url(#paint0_linear)"/>
<path d="M48.8979 8.15381C48.0134 8.15381 47.2764 8.89089 47.2764 9.77539C47.2764 10.6599 48.0134 11.397 48.8979 11.397C49.7824 11.397 50.5195 10.6599 50.5195 9.77539C50.5195 8.89089 49.7824 8.15381 48.8979 8.15381ZM48.8979 11.2496C48.0626 11.2496 47.4238 10.6108 47.4238 9.77539C47.4238 8.94003 48.0626 8.30123 48.8979 8.30123C49.7333 8.30123 50.3721 8.94003 50.3721 9.77539C50.3721 10.6108 49.6842 11.2496 48.8979 11.2496Z" fill="url(#paint1_linear)"/>
<path d="M54.9419 21.6177C54.0574 21.6177 53.3203 22.3548 53.3203 23.2393C53.3203 24.1238 54.0574 24.8608 54.9419 24.8608C55.8264 24.8608 56.5635 24.1238 56.5635 23.2393C56.5635 22.3548 55.8264 21.6177 54.9419 21.6177ZM54.9419 24.7134C54.1065 24.7134 53.4677 24.0746 53.4677 23.2393C53.4677 22.4039 54.1065 21.7651 54.9419 21.7651C55.7773 21.7651 56.4161 22.4039 56.4161 23.2393C56.4161 24.0746 55.7281 24.7134 54.9419 24.7134Z" fill="url(#paint2_linear)"/>
<path d="M49.6353 36.1631C48.7508 36.1631 48.0137 36.9002 48.0137 37.7847C48.0137 38.6692 48.7508 39.4063 49.6353 39.4063C50.5198 39.4063 51.2568 38.6692 51.2568 37.7847C51.2568 36.9002 50.5198 36.1631 49.6353 36.1631ZM49.6353 39.2588C48.7999 39.2588 48.1611 38.62 48.1611 37.7847C48.1611 36.9493 48.7999 36.3105 49.6353 36.3105C50.4706 36.3105 51.1094 36.9493 51.1094 37.7847C51.1094 38.62 50.4215 39.2588 49.6353 39.2588Z" fill="url(#paint3_linear)"/>
<path d="M34.8931 42.4038C34.0086 42.4038 33.2715 43.1409 33.2715 44.0254C33.2715 44.9099 34.0086 45.647 34.8931 45.647C35.7776 45.647 36.5147 44.9099 36.5147 44.0254C36.5147 43.1409 35.7776 42.4038 34.8931 42.4038ZM34.8931 45.4996C34.0577 45.4996 33.4189 44.8608 33.4189 44.0254C33.4189 43.19 34.0577 42.5512 34.8931 42.5512C35.7284 42.5512 36.3672 43.19 36.3672 44.0254C36.3672 44.8608 35.6793 45.4996 34.8931 45.4996Z" fill="url(#paint4_linear)"/>
<path d="M20.5444 36.8511C19.6599 36.8511 18.9229 37.5882 18.9229 38.4727C18.9229 39.3572 19.6599 40.0942 20.5444 40.0942C21.4289 40.0942 22.166 39.3572 22.166 38.4727C22.166 37.5882 21.4289 36.8511 20.5444 36.8511ZM20.5444 39.9468C19.7091 39.9468 19.0703 39.308 19.0703 38.4727C19.0703 37.6373 19.7091 36.9985 20.5444 36.9985C21.3798 36.9985 22.0186 37.6373 22.0186 38.4727C22.0186 39.308 21.3307 39.9468 20.5444 39.9468Z" fill="url(#paint5_linear)"/>
<path d="M14.5005 21.667C13.616 21.667 12.8789 22.4041 12.8789 23.2886C12.8789 24.1731 13.616 24.9102 14.5005 24.9102C15.385 24.9102 16.1221 24.1731 16.1221 23.2886C16.1221 22.4041 15.385 21.667 14.5005 21.667ZM14.5005 24.7627C13.6651 24.7627 13.0263 24.1239 13.0263 23.2886C13.0263 22.4532 13.6651 21.8144 14.5005 21.8144C15.3359 21.8144 15.9747 22.4532 15.9747 23.2886C15.9747 24.1239 15.2867 24.7627 14.5005 24.7627Z" fill="url(#paint6_linear)"/>
<path d="M20.6431 7.76074C19.7586 7.76074 19.0215 8.49783 19.0215 9.38233C19.0215 10.2668 19.7586 11.0039 20.6431 11.0039C21.5276 11.0039 22.2647 10.2668 22.2647 9.38233C22.2647 8.49783 21.5276 7.76074 20.6431 7.76074ZM20.6431 10.8565C19.8077 10.8565 19.1689 10.2177 19.1689 9.38233C19.1689 8.54696 19.8077 7.90816 20.6431 7.90816C21.4784 7.90816 22.1172 8.54696 22.1172 9.38233C22.1172 10.2177 21.4293 10.8565 20.6431 10.8565Z" fill="url(#paint7_linear)"/>
<path d="M35.1388 0.586426C25.999 0.586426 18.0876 5.84429 14.2548 13.5591C12.6824 16.704 11.7979 20.1929 11.7979 23.9274C11.7979 36.8018 22.2644 47.2684 35.1388 47.2684C44.4261 47.2684 52.4849 41.814 56.2194 34.0009C57.6936 30.9543 58.4798 27.5637 58.4798 23.9274C58.4798 11.053 48.0624 0.586426 35.1388 0.586426ZM35.2371 46.2856C22.805 46.2856 12.7315 36.2613 12.7315 23.8291C12.7315 11.397 22.805 1.37265 35.2371 1.37265C47.6693 1.37265 57.6936 11.397 57.6936 23.8291C57.6936 36.2613 47.6201 46.2856 35.2371 46.2856Z" fill="url(#paint8_linear)"/>
<path d="M22.3137 11.5935C17.3998 16.36 15.9257 23.3377 17.8912 29.4309C18.6774 31.937 20.0533 34.2466 22.0189 36.2612C28.7509 43.1407 39.8072 43.3373 46.6866 36.6052C51.6496 31.7405 53.1238 24.6645 51.06 18.5221C50.2738 16.1143 48.8979 13.903 47.0306 11.9375C40.2986 5.0089 29.2423 4.86148 22.3137 11.5935ZM46.1952 36.0156C39.5615 42.5019 28.8983 42.3545 22.4611 35.7207C15.9748 29.087 16.1222 18.4238 22.756 11.9866C29.3897 5.54943 40.0529 5.64771 46.4901 12.2815C52.9764 18.9152 52.829 29.5784 46.1952 36.0156Z" fill="url(#paint9_linear)"/>
<defs>
<linearGradient id="paint0_linear" x1="33.4856" y1="2.99212" x2="36.2877" y2="4.60992" gradientUnits="userSpaceOnUse">
<stop offset="0.0292397" stop-color="#7E7F80"/>
<stop offset="0.152" stop-color="#B2B2B2"/>
<stop offset="0.3918" stop-color="#606161"/>
<stop offset="0.642" stop-color="#ABADAD"/>
<stop offset="0.8538" stop-color="#A8A8A8"/>
<stop offset="1" stop-color="#6A6A6A"/>
</linearGradient>
<linearGradient id="paint1_linear" x1="47.4905" y1="8.97069" x2="50.2926" y2="10.5884" gradientUnits="userSpaceOnUse">
<stop offset="0.0292397" stop-color="#7E7F80"/>
<stop offset="0.152" stop-color="#B2B2B2"/>
<stop offset="0.3918" stop-color="#606161"/>
<stop offset="0.642" stop-color="#ABADAD"/>
<stop offset="0.8538" stop-color="#A8A8A8"/>
<stop offset="1" stop-color="#6A6A6A"/>
</linearGradient>
<linearGradient id="paint2_linear" x1="53.5508" y1="22.4018" x2="56.3529" y2="24.0196" gradientUnits="userSpaceOnUse">
<stop offset="0.0292397" stop-color="#7E7F80"/>
<stop offset="0.152" stop-color="#B2B2B2"/>
<stop offset="0.3918" stop-color="#606161"/>
<stop offset="0.642" stop-color="#ABADAD"/>
<stop offset="0.8538" stop-color="#A8A8A8"/>
<stop offset="1" stop-color="#6A6A6A"/>
</linearGradient>
<linearGradient id="paint3_linear" x1="48.2278" y1="36.98" x2="51.0299" y2="38.5977" gradientUnits="userSpaceOnUse">
<stop offset="0.0292397" stop-color="#7E7F80"/>
<stop offset="0.152" stop-color="#B2B2B2"/>
<stop offset="0.3918" stop-color="#606161"/>
<stop offset="0.642" stop-color="#ABADAD"/>
<stop offset="0.8538" stop-color="#A8A8A8"/>
<stop offset="1" stop-color="#6A6A6A"/>
</linearGradient>
<linearGradient id="paint4_linear" x1="33.4856" y1="43.2043" x2="36.2877" y2="44.8221" gradientUnits="userSpaceOnUse">
<stop offset="0.0292397" stop-color="#7E7F80"/>
<stop offset="0.152" stop-color="#B2B2B2"/>
<stop offset="0.3918" stop-color="#606161"/>
<stop offset="0.642" stop-color="#ABADAD"/>
<stop offset="0.8538" stop-color="#A8A8A8"/>
<stop offset="1" stop-color="#6A6A6A"/>
</linearGradient>
<linearGradient id="paint5_linear" x1="19.1534" y1="37.6352" x2="21.9554" y2="39.253" gradientUnits="userSpaceOnUse">
<stop offset="0.0292397" stop-color="#7E7F80"/>
<stop offset="0.152" stop-color="#B2B2B2"/>
<stop offset="0.3918" stop-color="#606161"/>
<stop offset="0.642" stop-color="#ABADAD"/>
<stop offset="0.8538" stop-color="#A8A8A8"/>
<stop offset="1" stop-color="#6A6A6A"/>
</linearGradient>
<linearGradient id="paint6_linear" x1="13.0931" y1="22.4839" x2="15.8951" y2="24.1016" gradientUnits="userSpaceOnUse">
<stop offset="0.0292397" stop-color="#7E7F80"/>
<stop offset="0.152" stop-color="#B2B2B2"/>
<stop offset="0.3918" stop-color="#606161"/>
<stop offset="0.642" stop-color="#ABADAD"/>
<stop offset="0.8538" stop-color="#A8A8A8"/>
<stop offset="1" stop-color="#6A6A6A"/>
</linearGradient>
<linearGradient id="paint7_linear" x1="19.2356" y1="8.56126" x2="22.0377" y2="10.179" gradientUnits="userSpaceOnUse">
<stop offset="0.0292397" stop-color="#7E7F80"/>
<stop offset="0.152" stop-color="#B2B2B2"/>
<stop offset="0.3918" stop-color="#606161"/>
<stop offset="0.642" stop-color="#ABADAD"/>
<stop offset="0.8538" stop-color="#A8A8A8"/>
<stop offset="1" stop-color="#6A6A6A"/>
</linearGradient>
<linearGradient id="paint8_linear" x1="11.8119" y1="23.9275" x2="58.494" y2="23.9275" gradientUnits="userSpaceOnUse">
<stop offset="0.0292397" stop-color="#7E7F80"/>
<stop offset="0.152" stop-color="#B2B2B2"/>
<stop offset="0.3918" stop-color="#606161"/>
<stop offset="0.642" stop-color="#ABADAD"/>
<stop offset="0.8538" stop-color="#A8A8A8"/>
<stop offset="1" stop-color="#6A6A6A"/>
</linearGradient>
<linearGradient id="paint9_linear" x1="21.9981" y1="36.2609" x2="46.9993" y2="11.9261" gradientUnits="userSpaceOnUse">
<stop offset="0.0292397" stop-color="#7E7F80"/>
<stop offset="0.152" stop-color="#B2B2B2"/>
<stop offset="0.3918" stop-color="#606161"/>
<stop offset="0.642" stop-color="#ABADAD"/>
<stop offset="0.8538" stop-color="#A8A8A8"/>
<stop offset="1" stop-color="#6A6A6A"/>
</linearGradient>
</defs>
</svg>
