<svg width="26" height="33" viewBox="0 0 26 33" fill="none" xmlns="http://www.w3.org/2000/svg">
<path d="M25.5283 8.71698L16.8113 0H0V33H25.5283V8.71698Z" fill="#373737"/>
<path d="M4.98104 13.0754H20.5471C20.8908 13.0754 21.1697 12.797 21.1697 12.4527C21.1697 12.1084 20.8908 11.8301 20.5471 11.8301H4.98104C4.63734 11.8301 4.3584 12.1084 4.3584 12.4527C4.3584 12.797 4.63734 13.0754 4.98104 13.0754Z" fill="white"/>
<path d="M4.98202 8.0944H11.2084C11.5521 8.0944 11.8311 7.81608 11.8311 7.47176C11.8311 7.12744 11.5521 6.84912 11.2084 6.84912H4.98202C4.63832 6.84912 4.35938 7.12744 4.35938 7.47176C4.35938 7.81608 4.63832 8.0944 4.98202 8.0944Z" fill="white"/>
<path d="M20.5471 16.8115H4.98104C4.63734 16.8115 4.3584 17.0898 4.3584 17.4342C4.3584 17.7785 4.63734 18.0568 4.98104 18.0568H20.5471C20.8908 18.0568 21.1697 17.7785 21.1697 17.4342C21.1697 17.0898 20.8908 16.8115 20.5471 16.8115Z" fill="white"/>
<path d="M20.5471 21.7925H4.98104C4.63734 21.7925 4.3584 22.0708 4.3584 22.4151C4.3584 22.7594 4.63734 23.0378 4.98104 23.0378H20.5471C20.8908 23.0378 21.1697 22.7594 21.1697 22.4151C21.1697 22.0708 20.8908 21.7925 20.5471 21.7925Z" fill="white"/>
<path d="M20.5471 26.7734H4.98104C4.63734 26.7734 4.3584 27.0518 4.3584 27.3961C4.3584 27.7404 4.63734 28.0187 4.98104 28.0187H20.5471C20.8908 28.0187 21.1697 27.7404 21.1697 27.3961C21.1697 27.0518 20.8908 26.7734 20.5471 26.7734Z" fill="white"/>
<path d="M16.8115 0V8.71698H25.5285L16.8115 0Z" fill="#E52928"/>
</svg>
