<svg width="61" height="60" viewBox="0 0 61 60" fill="none" xmlns="http://www.w3.org/2000/svg">
<path d="M57.4258 21.3281V24.8438H53.8516V21.3281H50.2773V10.5469H53.8516V0H0V10.5469H3.57422V21.3281H0V31.875H34.0742V35.3906H30.5V52.9688H37.7676V60H41.3418V52.9688H48.4902V35.3906H44.7969V31.875H53.8516V28.3594H57.4258V31.875H61V21.3281H57.4258ZM46.7031 21.3281H43.1289V10.5469H46.7031V21.3281ZM25.1387 10.5469V21.3281H21.5645V10.5469H25.1387ZM28.7129 10.5469H39.5547V21.3281H28.7129V10.5469ZM3.57422 3.51562H50.2773V7.03125H3.57422V3.51562ZM7.14844 10.5469H17.9902V21.3281H7.14844V10.5469ZM34.0742 49.4531V45.9375H44.916V49.4531H34.0742ZM44.916 42.4219H34.0742V38.9062H44.916V42.4219ZM41.2227 35.3906H37.6484V31.875H41.2227V35.3906ZM50.2773 28.3594H3.57422V24.8438H50.2773V28.3594Z" fill="white"/>
</svg>
