<svg width="60" height="60" viewBox="0 0 60 60" fill="none" xmlns="http://www.w3.org/2000/svg">
<path d="M31.4277 7.47217H6.93262V31.7361H31.4277V7.47217ZM27.9614 10.9385V14.4047H10.3989V10.9385H27.9614ZM27.9614 17.871V21.3373H10.3989V17.871H27.9614ZM10.3989 28.2699V24.8036H27.9614V28.2699H10.3989Z" fill="white"/>
<path d="M45.2928 31.7361H38.3602V0.539551H0V56.2312H3.46628V59.6974H6.93256V56.2312H31.4276V59.6974H34.8939V56.2312H38.3602V49.0675H45.2928V45.6012H59.1579V35.2024H45.2928V31.7361ZM27.9613 52.7649H10.3988V38.6687H27.9613V52.7649ZM34.8939 52.7649H31.4276V35.2024H6.93256V52.7649H3.46628V4.00583H34.8939V52.7649ZM41.8265 45.6012H38.3602V35.2024H41.8265V45.6012ZM55.6916 42.1349H52.2253V38.6687H55.6916V42.1349ZM48.759 38.6687V42.1349H45.2928V38.6687H48.759Z" fill="white"/>
</svg>
