<svg width="16" height="16" viewBox="0 0 16 16" fill="none" xmlns="http://www.w3.org/2000/svg">
<path d="M8.00003 0C3.58205 0 0 3.58204 0 8C0 12.4179 3.58205 16 8.00003 16C12.418 16 16 12.4179 16 8C16 3.58204 12.418 0 8.00003 0ZM12.2246 11.6729L11.584 12.3136C11.4697 12.4278 11.1348 12.499 11.1241 12.499C9.09765 12.5167 7.14653 11.7207 5.71296 10.287C4.27546 8.84872 3.47858 6.89065 3.49998 4.85742C3.49998 4.8565 3.57331 4.53123 3.68757 4.41806L4.32809 3.77745C4.56248 3.54197 5.01272 3.43556 5.32813 3.54108L5.46287 3.58603C5.77736 3.69145 6.10754 4.03917 6.19443 4.35953L6.51663 5.54209C6.60352 5.86337 6.48633 6.32044 6.25201 6.55483L5.82432 6.98258C6.24422 8.5371 7.46395 9.75706 9.01874 10.178L9.44627 9.75013C9.68175 9.51465 10.1387 9.39756 10.4592 9.48432L11.6416 9.80767C11.9621 9.89572 12.3097 10.2238 12.4151 10.5382L12.4601 10.6749C12.5645 10.9894 12.4589 11.4396 12.2246 11.6729Z" fill="#E52928"/>
</svg>
