<svg width="14" height="14" viewBox="0 0 14 14" fill="none" xmlns="http://www.w3.org/2000/svg">
<path d="M13.0287 11.9699L10.3017 9.24282C10.9678 8.3563 11.3643 7.25268 11.3643 6.05714C11.3643 3.12723 8.98705 0.75 6.05714 0.75C3.12471 0.75 0.75 3.12731 0.75 6.05714C0.75 8.98697 3.12471 11.3643 6.05714 11.3643C7.25251 11.3643 8.35403 10.97 9.24045 10.3041L11.9685 13.0298C11.9686 13.0299 11.9686 13.0299 11.9686 13.0299C12.262 13.3232 12.7357 13.3234 13.0293 13.0304C13.3235 12.7392 13.3236 12.2618 13.0294 11.9705C13.0292 11.9703 13.0289 11.9701 13.0287 11.9699ZM6.05714 9.85776C3.9592 9.85776 2.25408 8.15244 2.25408 6.05714C2.25408 3.96165 3.95939 2.25408 6.05714 2.25408C8.15254 2.25408 9.8602 3.96174 9.8602 6.05714C9.8602 8.15234 8.15274 9.85776 6.05714 9.85776Z" fill="#E52928" stroke="#E52928" stroke-width="0.5"/>
</svg>
