<svg width="53" height="44" viewBox="0 0 53 44" fill="none" xmlns="http://www.w3.org/2000/svg">
<path d="M4.17818 35.9097H7.26477L11.5182 43.6638H8.88335L8.13052 42.3087H3.35008L2.63489 43.6638H0L4.17818 35.9097ZM4.21582 40.6148H7.26477L5.72148 37.7164L4.21582 40.6148Z" fill="#373737"/>
<path d="M12.1201 38.4692H16.4489C16.8253 38.4692 17.1264 38.5069 17.3899 38.6198C17.6157 38.6951 17.8416 38.8457 17.9545 38.9962C18.1051 39.1468 18.1804 39.335 18.2556 39.5608C18.2933 39.7867 18.3309 40.0125 18.3309 40.276V40.7277C18.3309 40.9159 18.2933 41.1041 18.2556 41.33C18.218 41.5182 18.1427 41.7064 18.0298 41.857C17.9169 42.0075 17.7663 42.1581 17.5781 42.2334C17.3899 42.3463 17.164 42.3839 16.8629 42.3839H13.7011V43.7014H12.1201V38.4692ZM13.7011 41.0665H16.1854C16.3736 41.0665 16.4865 41.0288 16.5994 40.9159C16.6747 40.803 16.7124 40.6901 16.7124 40.5395V40.3513C16.7124 40.1631 16.6747 40.0502 16.5618 39.9372C16.4489 39.8243 16.2983 39.7867 16.0348 39.7867H13.7011V41.0665Z" fill="#373737"/>
<path d="M19.1973 38.4692H21.6439L23.4507 41.8193L25.2575 38.4692H27.7042V43.6637H26.1609V39.9372L24.0906 43.6637H22.8861L20.8158 39.9372V43.6637H19.1973V38.4692Z" fill="#373737"/>
<path d="M35.082 38.4692H41.1423V39.749H38.9214V43.6637H37.3405V39.749H35.1197V38.4692H35.082Z" fill="#373737"/>
<path d="M45.5083 35.9097H48.5948L52.8483 43.6638H50.2134L49.4606 42.3087H44.6425L43.965 43.6638H41.3301L45.5083 35.9097ZM45.5835 40.6148H48.6325L47.0892 37.7164L45.5835 40.6148Z" fill="#373737"/>
<path fill-rule="evenodd" clip-rule="evenodd" d="M34.2937 38.3564H29.2498L28.5723 39.6739H33.6538L34.2937 38.3564Z" fill="#E30613"/>
<path fill-rule="evenodd" clip-rule="evenodd" d="M34.2537 40.3516H29.2098L28.5322 41.7067L33.6138 41.669L34.2537 40.3516Z" fill="#E30613"/>
<path fill-rule="evenodd" clip-rule="evenodd" d="M34.2537 42.3086H29.2098L28.5322 43.6637L33.6138 43.626L34.2537 42.3086Z" fill="#E30613"/>
<path d="M22.6976 10.6147L16.1104 23.8645H20.8908L22.133 21.6436H30.2258L31.468 23.8645H36.2484L29.6989 10.6147H22.6976ZM23.6763 18.1806L25.8971 13.5884H26.537L28.7202 18.1806H23.6763Z" fill="#E30613"/>
<path d="M26.0854 0.225586C19.1594 0.225586 13.1744 4.21556 10.2761 10.0123C9.10918 12.3837 8.43164 15.0563 8.43164 17.8794C8.43164 27.6285 16.3363 35.5331 26.0854 35.5331C33.1243 35.5331 39.1846 31.4302 42.0453 25.4829C43.1369 23.1868 43.7768 20.5895 43.7768 17.8794C43.7768 8.13026 35.8345 0.225586 26.0854 0.225586ZM36.0604 6.21055C36.5121 5.72121 37.3025 5.72121 37.7542 6.21055C38.2435 6.66225 38.2435 7.45271 37.7542 7.90441C37.3025 8.39375 36.5121 8.39375 36.0604 7.90441C35.571 7.45271 35.571 6.69989 36.0604 6.21055ZM26.1607 1.20426C26.8382 1.20426 27.3652 1.73124 27.3652 2.40878C27.3652 3.08632 26.8382 3.6133 26.1607 3.6133C25.4831 3.6133 24.9562 3.08632 24.9562 2.40878C24.9562 1.73124 25.4831 1.20426 26.1607 1.20426ZM14.4166 5.87178C14.8683 5.38244 15.6588 5.38244 16.1105 5.87178C16.5998 6.32348 16.5998 7.11394 16.1105 7.56564C15.6588 8.05498 14.8683 8.05498 14.4166 7.56564C13.9649 7.11394 13.9649 6.36112 14.4166 5.87178ZM10.5396 18.5569C9.86201 18.5569 9.33503 18.0299 9.33503 17.3524C9.33503 16.6748 9.86201 16.1479 10.5396 16.1479C11.2171 16.1479 11.7441 16.6748 11.7441 17.3524C11.7441 18.0299 11.2171 18.5569 10.5396 18.5569ZM16.0728 29.8493C15.6211 30.3386 14.8307 30.3386 14.379 29.8493C13.8896 29.3976 13.8896 28.6071 14.379 28.1554C14.8307 27.6661 15.6211 27.6661 16.0728 28.1554C16.5245 28.6071 16.5622 29.36 16.0728 29.8493ZM26.1607 34.4792C25.4831 34.4792 24.9562 33.9522 24.9562 33.2746C24.9562 32.5971 25.4831 32.0701 26.1607 32.0701C26.8382 32.0701 27.3652 32.5971 27.3652 33.2746C27.3652 33.9522 26.8006 34.4792 26.1607 34.4792ZM38.2812 29.3599C37.8295 29.8493 37.039 29.8493 36.5873 29.3599C36.098 28.9083 36.098 28.1178 36.5873 27.6661C37.039 27.1768 37.8295 27.1768 38.2812 27.6661C38.7329 28.1178 38.7329 28.8706 38.2812 29.3599ZM38.7329 21.7941C36.5497 28.72 29.1344 32.5595 22.1707 30.3763C15.2071 28.1931 11.33 20.8154 13.5132 13.8894C15.6964 6.96338 23.1117 3.12397 30.0754 5.30716C37.0014 7.49036 40.8784 14.8681 38.7329 21.7941ZM41.5936 18.5193C40.9161 18.5193 40.3891 17.9923 40.3891 17.3147C40.3891 16.6372 40.9161 16.1102 41.5936 16.1102C42.2712 16.1102 42.7981 16.6372 42.7981 17.3147C42.7981 17.9923 42.2335 18.5193 41.5936 18.5193Z" fill="#9A9999"/>
<path d="M26.1982 1.24219C25.5207 1.24219 24.9561 1.80681 24.9561 2.48435C24.9561 3.16189 25.5207 3.72651 26.1982 3.72651C26.8758 3.72651 27.4404 3.16189 27.4404 2.48435C27.4404 1.80681 26.8758 1.24219 26.1982 1.24219ZM26.1982 3.61359C25.5583 3.61359 25.069 3.12425 25.069 2.48435C25.069 1.84445 25.5583 1.35511 26.1982 1.35511C26.8381 1.35511 27.3275 1.84445 27.3275 2.48435C27.3275 3.12425 26.8005 3.61359 26.1982 3.61359Z" fill="url(#paint0_linear)"/>
<path d="M36.9258 5.79688C36.2482 5.79688 35.6836 6.36149 35.6836 7.03904C35.6836 7.71658 36.2482 8.2812 36.9258 8.2812C37.6033 8.2812 38.1679 7.71658 38.1679 7.03904C38.1679 6.36149 37.6033 5.79688 36.9258 5.79688ZM36.9258 8.16828C36.2859 8.16828 35.7965 7.67894 35.7965 7.03904C35.7965 6.39914 36.2859 5.9098 36.9258 5.9098C37.5657 5.9098 38.055 6.39914 38.055 7.03904C38.055 7.67894 37.528 8.16828 36.9258 8.16828Z" fill="url(#paint1_linear)"/>
<path d="M41.5556 16.1104C40.8781 16.1104 40.3135 16.675 40.3135 17.3525C40.3135 18.0301 40.8781 18.5947 41.5556 18.5947C42.2332 18.5947 42.7978 18.0301 42.7978 17.3525C42.7978 16.675 42.2332 16.1104 41.5556 16.1104ZM41.5556 18.4818C40.9157 18.4818 40.4264 17.9924 40.4264 17.3525C40.4264 16.7126 40.9157 16.2233 41.5556 16.2233C42.1955 16.2233 42.6849 16.7126 42.6849 17.3525C42.6849 17.9924 42.1579 18.4818 41.5556 18.4818Z" fill="url(#paint2_linear)"/>
<path d="M37.4902 27.2524C36.8127 27.2524 36.248 27.8171 36.248 28.4946C36.248 29.1721 36.8127 29.7368 37.4902 29.7368C38.1678 29.7368 38.7324 29.1721 38.7324 28.4946C38.7324 27.8171 38.1678 27.2524 37.4902 27.2524ZM37.4902 29.6238C36.8503 29.6238 36.361 29.1345 36.361 28.4946C36.361 27.8547 36.8503 27.3654 37.4902 27.3654C38.1301 27.3654 38.6194 27.8547 38.6194 28.4946C38.6194 29.1345 38.0925 29.6238 37.4902 29.6238Z" fill="url(#paint3_linear)"/>
<path d="M26.1982 32.0327C25.5207 32.0327 24.9561 32.5973 24.9561 33.2749C24.9561 33.9524 25.5207 34.517 26.1982 34.517C26.8758 34.517 27.4404 33.9524 27.4404 33.2749C27.4404 32.5973 26.8758 32.0327 26.1982 32.0327ZM26.1982 34.4041C25.5583 34.4041 25.069 33.9148 25.069 33.2749C25.069 32.635 25.5583 32.1456 26.1982 32.1456C26.8381 32.1456 27.3275 32.635 27.3275 33.2749C27.3275 33.9148 26.8005 34.4041 26.1982 34.4041Z" fill="url(#paint4_linear)"/>
<path d="M15.207 27.7793C14.5295 27.7793 13.9648 28.3439 13.9648 29.0215C13.9648 29.699 14.5295 30.2636 15.207 30.2636C15.8846 30.2636 16.4492 29.699 16.4492 29.0215C16.4492 28.3439 15.8846 27.7793 15.207 27.7793ZM15.207 30.1507C14.5671 30.1507 14.0778 29.6614 14.0778 29.0215C14.0778 28.3816 14.5671 27.8922 15.207 27.8922C15.8469 27.8922 16.3362 28.3816 16.3362 29.0215C16.3362 29.6614 15.8093 30.1507 15.207 30.1507Z" fill="url(#paint5_linear)"/>
<path d="M10.5771 16.1479C9.89958 16.1479 9.33496 16.7126 9.33496 17.3901C9.33496 18.0677 9.89958 18.6323 10.5771 18.6323C11.2547 18.6323 11.8193 18.0677 11.8193 17.3901C11.8193 16.7126 11.2547 16.1479 10.5771 16.1479ZM10.5771 18.5194C9.93722 18.5194 9.44789 18.03 9.44789 17.3901C9.44789 16.7502 9.93722 16.2609 10.5771 16.2609C11.217 16.2609 11.7064 16.7502 11.7064 17.3901C11.7064 18.03 11.1794 18.5194 10.5771 18.5194Z" fill="url(#paint6_linear)"/>
<path d="M15.2822 5.49561C14.6047 5.49561 14.04 6.06022 14.04 6.73777C14.04 7.41531 14.6047 7.97993 15.2822 7.97993C15.9597 7.97993 16.5244 7.41531 16.5244 6.73777C16.5244 6.06022 15.9597 5.49561 15.2822 5.49561ZM15.2822 7.86701C14.6423 7.86701 14.153 7.37767 14.153 6.73777C14.153 6.09787 14.6423 5.60853 15.2822 5.60853C15.9221 5.60853 16.4114 6.09787 16.4114 6.73777C16.4114 7.37767 15.8845 7.86701 15.2822 7.86701Z" fill="url(#paint7_linear)"/>
<path d="M26.3865 0C19.3852 0 13.3249 4.02762 10.3889 9.9373C9.18438 12.3463 8.50684 15.0189 8.50684 17.8796C8.50684 27.7416 16.5244 35.7592 26.3865 35.7592C33.5007 35.7592 39.6738 31.581 42.5346 25.5961C43.6638 23.2623 44.2661 20.6651 44.2661 17.8796C44.2661 8.0176 36.2861 0 26.3865 0ZM26.4617 35.0064C16.9385 35.0064 9.22202 27.3276 9.22202 17.8043C9.22202 8.28109 16.9385 0.602261 26.4617 0.602261C35.985 0.602261 43.6638 8.28109 43.6638 17.8043C43.6638 27.3276 35.9473 35.0064 26.4617 35.0064Z" fill="url(#paint8_linear)"/>
<path d="M16.5623 8.43181C12.7982 12.083 11.6689 17.4281 13.1746 22.0956C13.7768 24.0153 14.8308 25.7845 16.3364 27.3277C21.4933 32.5975 29.9626 32.7481 35.2324 27.5912C39.0341 23.8647 40.1634 18.4444 38.5824 13.7392C37.9802 11.8948 36.9262 10.201 35.4959 8.6953C30.339 3.38788 21.8697 3.27496 16.5623 8.43181ZM34.856 27.1395C29.7744 32.1082 21.6062 31.9953 16.6752 26.9137C11.7066 21.8321 11.8195 13.664 16.9011 8.73294C21.9826 3.80193 30.1508 3.87722 35.0818 8.95879C40.0505 14.0404 39.9375 22.2085 34.856 27.1395Z" fill="url(#paint9_linear)"/>
<defs>
<linearGradient id="paint0_linear" x1="25.1201" y1="1.84283" x2="27.2665" y2="3.08209" gradientUnits="userSpaceOnUse">
<stop offset="0.0292397" stop-color="#7E7F80"/>
<stop offset="0.152" stop-color="#B2B2B2"/>
<stop offset="0.3918" stop-color="#606161"/>
<stop offset="0.642" stop-color="#ABADAD"/>
<stop offset="0.8538" stop-color="#A8A8A8"/>
<stop offset="1" stop-color="#6A6A6A"/>
</linearGradient>
<linearGradient id="paint1_linear" x1="35.8476" y1="6.42262" x2="37.9941" y2="7.66185" gradientUnits="userSpaceOnUse">
<stop offset="0.0292397" stop-color="#7E7F80"/>
<stop offset="0.152" stop-color="#B2B2B2"/>
<stop offset="0.3918" stop-color="#606161"/>
<stop offset="0.642" stop-color="#ABADAD"/>
<stop offset="0.8538" stop-color="#A8A8A8"/>
<stop offset="1" stop-color="#6A6A6A"/>
</linearGradient>
<linearGradient id="paint2_linear" x1="40.4901" y1="16.711" x2="42.6365" y2="17.9503" gradientUnits="userSpaceOnUse">
<stop offset="0.0292397" stop-color="#7E7F80"/>
<stop offset="0.152" stop-color="#B2B2B2"/>
<stop offset="0.3918" stop-color="#606161"/>
<stop offset="0.642" stop-color="#ABADAD"/>
<stop offset="0.8538" stop-color="#A8A8A8"/>
<stop offset="1" stop-color="#6A6A6A"/>
</linearGradient>
<linearGradient id="paint3_linear" x1="36.4121" y1="27.8782" x2="38.5585" y2="29.1174" gradientUnits="userSpaceOnUse">
<stop offset="0.0292397" stop-color="#7E7F80"/>
<stop offset="0.152" stop-color="#B2B2B2"/>
<stop offset="0.3918" stop-color="#606161"/>
<stop offset="0.642" stop-color="#ABADAD"/>
<stop offset="0.8538" stop-color="#A8A8A8"/>
<stop offset="1" stop-color="#6A6A6A"/>
</linearGradient>
<linearGradient id="paint4_linear" x1="25.1201" y1="32.6459" x2="27.2665" y2="33.8852" gradientUnits="userSpaceOnUse">
<stop offset="0.0292397" stop-color="#7E7F80"/>
<stop offset="0.152" stop-color="#B2B2B2"/>
<stop offset="0.3918" stop-color="#606161"/>
<stop offset="0.642" stop-color="#ABADAD"/>
<stop offset="0.8538" stop-color="#A8A8A8"/>
<stop offset="1" stop-color="#6A6A6A"/>
</linearGradient>
<linearGradient id="paint5_linear" x1="14.1414" y1="28.3799" x2="16.2878" y2="29.6192" gradientUnits="userSpaceOnUse">
<stop offset="0.0292397" stop-color="#7E7F80"/>
<stop offset="0.152" stop-color="#B2B2B2"/>
<stop offset="0.3918" stop-color="#606161"/>
<stop offset="0.642" stop-color="#ABADAD"/>
<stop offset="0.8538" stop-color="#A8A8A8"/>
<stop offset="1" stop-color="#6A6A6A"/>
</linearGradient>
<linearGradient id="paint6_linear" x1="9.499" y1="16.7737" x2="11.6454" y2="18.0129" gradientUnits="userSpaceOnUse">
<stop offset="0.0292397" stop-color="#7E7F80"/>
<stop offset="0.152" stop-color="#B2B2B2"/>
<stop offset="0.3918" stop-color="#606161"/>
<stop offset="0.642" stop-color="#ABADAD"/>
<stop offset="0.8538" stop-color="#A8A8A8"/>
<stop offset="1" stop-color="#6A6A6A"/>
</linearGradient>
<linearGradient id="paint7_linear" x1="14.2041" y1="6.10882" x2="16.3505" y2="7.34805" gradientUnits="userSpaceOnUse">
<stop offset="0.0292397" stop-color="#7E7F80"/>
<stop offset="0.152" stop-color="#B2B2B2"/>
<stop offset="0.3918" stop-color="#606161"/>
<stop offset="0.642" stop-color="#ABADAD"/>
<stop offset="0.8538" stop-color="#A8A8A8"/>
<stop offset="1" stop-color="#6A6A6A"/>
</linearGradient>
<linearGradient id="paint8_linear" x1="8.5176" y1="17.8797" x2="44.2769" y2="17.8797" gradientUnits="userSpaceOnUse">
<stop offset="0.0292397" stop-color="#7E7F80"/>
<stop offset="0.152" stop-color="#B2B2B2"/>
<stop offset="0.3918" stop-color="#606161"/>
<stop offset="0.642" stop-color="#ABADAD"/>
<stop offset="0.8538" stop-color="#A8A8A8"/>
<stop offset="1" stop-color="#6A6A6A"/>
</linearGradient>
<linearGradient id="paint9_linear" x1="16.3205" y1="27.3275" x2="35.4719" y2="8.68655" gradientUnits="userSpaceOnUse">
<stop offset="0.0292397" stop-color="#7E7F80"/>
<stop offset="0.152" stop-color="#B2B2B2"/>
<stop offset="0.3918" stop-color="#606161"/>
<stop offset="0.642" stop-color="#ABADAD"/>
<stop offset="0.8538" stop-color="#A8A8A8"/>
<stop offset="1" stop-color="#6A6A6A"/>
</linearGradient>
</defs>
</svg>
